<svg width="120" height="120" viewBox="0 0 120 120" fill="none" xmlns="http://www.w3.org/2000/svg">
<path d="M50 100H70C70 105.5 65.5 110 60 110C54.5 110 50 105.5 50 100ZM100 86.75V95H20V86.75L30 77.35V51.6C30 37 37.8 25.5 50 21.7V19.8C50 12.7 57.45 7.3 64.95 11C68.2 12.6 70 16.15 70 19.8V21.75C82.2 25.5 90 37.05 90 51.65V77.4L100 86.75ZM95 88.85L85 79.45V52.1C85 39.75 79.05 30.3 69.35 26.6C63.05 23.95 56.15 24.1 50.15 26.75C40.75 30.55 35 39.95 35 52.1V79.45L25 88.85V90H95V88.85Z" fill="white"/>
</svg>
