<svg width="191" height="254" viewBox="0 0 191 254" fill="none" xmlns="http://www.w3.org/2000/svg">
<path d="M52.9254 253.326C47.8983 253.326 42.8431 252.579 37.8919 251.073C24.7158 247.066 13.8608 238.183 7.32474 226.055C-5.37084 202.426 2.43534 172.69 25.0924 158.351C28.6976 156.477 32.0612 154.558 35.5315 152.509C32.5894 150.784 29.7851 149.168 26.9048 147.558C12.9981 139.524 4.45292 128.278 2.15996 115.012C-0.888894 97.0031 -0.894516 74.2421 26.3231 57.8711C48.3985 44.6753 71.0415 31.7465 92.9398 19.242C100.201 15.0973 107.465 10.9497 114.726 6.77967C129.048 -1.37776 146.743 -1.70091 162.083 5.917C177.566 13.6052 188.112 28.0767 190.295 44.6276C193.473 65.7925 182.902 86.9349 163.988 97.1858C161.178 98.7735 158.486 100.339 155.861 101.904C156.457 102.258 157.042 102.612 157.62 102.96C159.68 104.202 161.667 105.397 163.696 106.543C179.271 115.31 189.104 130.195 190.669 147.372C192.211 164.345 185.347 180.528 171.836 191.77C167.495 195.3 162.588 198.062 157.845 200.737C156.44 201.527 155.038 202.319 153.653 203.128C131.187 216.217 104.534 231.686 77.1926 247.153C69.5943 251.25 61.302 253.326 52.9254 253.326ZM138.931 6.04626C131.448 6.04626 124.075 7.92053 117.513 11.6578C110.255 15.8251 102.988 19.9754 95.7245 24.1202C73.8487 36.6134 51.231 49.5282 29.2118 62.6902C9.99424 74.2478 3.55934 89.6128 7.69566 114.063C10.2218 128.669 21.0432 137.684 29.6783 142.668C33.8652 145.009 37.9144 147.375 42.4722 150.076C43.3236 150.581 43.8463 151.497 43.8491 152.484C43.8519 153.476 43.3321 154.395 42.4835 154.9C37.4086 157.944 32.8058 160.672 27.8827 163.218C7.91764 175.863 0.965706 202.347 12.2703 223.386C18.0955 234.196 27.7759 242.117 39.5245 245.691C51.2844 249.266 63.699 248.032 74.4753 242.232C101.738 226.808 128.371 211.35 150.82 198.27C152.231 197.449 153.658 196.646 155.089 195.842C159.627 193.285 164.319 190.641 168.267 187.432C180.311 177.408 186.448 162.985 185.074 147.881C183.683 132.572 174.885 119.289 160.939 111.438C158.86 110.264 156.831 109.041 154.723 107.774C152.902 106.675 151.02 105.543 148.985 104.371C148.128 103.876 147.594 102.966 147.58 101.977C147.566 100.988 148.075 100.063 148.918 99.5434C152.866 97.1127 156.907 94.7327 161.271 92.2683C178.156 83.1161 187.569 64.2947 184.734 45.4115C182.79 30.6703 173.39 17.8061 159.585 10.9497C152.987 7.67887 145.911 6.04626 138.931 6.04626Z" fill="white"/>
<path d="M72.1121 166.896C71.6288 166.896 71.1426 166.77 70.7071 166.52C69.836 166.017 69.2993 165.089 69.2993 164.086V90.6834C69.2993 89.6803 69.8332 88.753 70.7043 88.25C71.5698 87.747 72.6432 87.747 73.5143 88.25L137.006 124.867C137.875 125.367 138.411 126.295 138.411 127.298C138.411 128.301 137.88 129.228 137.009 129.734L73.5199 166.517C73.0872 166.77 72.601 166.896 72.1121 166.896ZM74.9221 95.5476V159.208L129.99 127.306L74.9221 95.5476Z" fill="white"/>
</svg>
