<svg width="185" height="248" viewBox="0 0 185 248" fill="none" xmlns="http://www.w3.org/2000/svg">
<path d="M159.242 106.201C155.378 104.016 151.682 101.664 147.315 99.1439C151.682 96.4564 155.716 94.104 159.58 91.9193C177.555 82.1748 187.467 62.3531 184.441 42.1934C180.072 9.10143 141.937 -10.047 113.044 6.41384C83.4781 23.383 53.9118 40.0142 24.6809 57.4835C1.49833 71.4271 -1.86253 89.905 1.83359 111.744C4.18592 125.352 13.2572 135.429 25.1838 142.319C29.3828 144.671 33.4142 147.023 37.9512 149.711C32.9113 152.734 28.377 155.421 23.5047 157.941C2.00122 171.55 -5.39103 199.434 6.70588 221.946C19.4733 245.634 49.0395 254.705 72.725 241.938C98.2598 227.491 123.795 212.707 149.162 197.925C155.21 194.397 161.594 191.206 166.969 186.837C194.016 164.325 189.984 123.505 159.242 106.201ZM69.0316 161.302V87.8907L132.533 124.514L69.0316 161.302Z" fill="#FFFAFA"/>
</svg>
